<svg width="116" height="116" viewBox="0 0 116 116" fill="none" xmlns="http://www.w3.org/2000/svg">
<path d="M102.141 66.1789C106.831 41.6249 90.7271 17.9185 66.1731 13.2292C41.6191 8.53989 17.9128 24.6434 13.2234 49.1973C8.53412 73.7513 24.6376 97.4577 49.1916 102.147C73.7455 106.836 97.4519 90.7328 102.141 66.1789Z" fill="#39AD48"/>
<path d="M113.072 51.4525C110.902 48.9125 110.213 45.4225 111.243 42.2525C112.703 37.7625 110.673 32.8725 106.473 30.7325C103.493 29.2125 101.522 26.2625 101.262 22.9325C100.892 18.2225 97.1525 14.4825 92.4425 14.1125C89.1125 13.8525 86.1625 11.8725 84.6425 8.9025C82.5025 4.6925 77.6125 2.6725 73.1225 4.1325C69.9425 5.1625 66.4625 4.4725 63.9225 2.3025C60.3325 -0.7675 55.0425 -0.7675 51.4525 2.3025C48.9125 4.4725 45.4225 5.1625 42.2525 4.1325C37.7625 2.6725 32.8725 4.7025 30.7325 8.9025C29.2125 11.8825 26.2625 13.8525 22.9325 14.1125C18.2225 14.4825 14.4825 18.2225 14.1125 22.9325C13.8525 26.2625 11.8725 29.2125 8.9025 30.7325C4.6925 32.8725 2.6725 37.7625 4.1325 42.2525C5.1625 45.4325 4.4725 48.9125 2.3025 51.4525C-0.7675 55.0425 -0.7675 60.3325 2.3025 63.9225C4.4725 66.4625 5.1625 69.9525 4.1325 73.1225C2.6725 77.6125 4.7025 82.5025 8.9025 84.6425C11.8825 86.1625 13.8525 89.1125 14.1125 92.4425C14.4825 97.1525 18.2225 100.892 22.9325 101.262C26.2625 101.522 29.2125 103.503 30.7325 106.473C32.8725 110.683 37.7625 112.703 42.2525 111.243C45.4325 110.213 48.9125 110.902 51.4525 113.072C55.0425 116.142 60.3325 116.142 63.9225 113.072C66.4625 110.902 69.9525 110.213 73.1225 111.243C77.6125 112.703 82.5025 110.673 84.6425 106.473C86.1625 103.493 89.1125 101.522 92.4425 101.262C97.1525 100.892 100.892 97.1525 101.262 92.4425C101.522 89.1125 103.503 86.1625 106.473 84.6425C110.683 82.5025 112.703 77.6125 111.243 73.1225C110.213 69.9425 110.902 66.4625 113.072 63.9225C116.142 60.3325 116.142 55.0425 113.072 51.4525ZM57.6725 106.342C30.8425 106.342 9.0225 84.5125 9.0225 57.6825C9.0225 30.8525 30.8425 9.0325 57.6725 9.0325C84.5025 9.0325 106.322 30.8625 106.322 57.6825C106.322 84.5025 84.5025 106.342 57.6725 106.342Z" fill="#39AD48"/>
</svg>
